<?xml version="1.0" encoding="utf-8"?>
<!-- Generator: Adobe Illustrator 16.0.4, SVG Export Plug-In . SVG Version: 6.00 Build 0)  -->
<!DOCTYPE svg PUBLIC "-//W3C//DTD SVG 1.1//EN" "http://www.w3.org/Graphics/SVG/1.1/DTD/svg11.dtd">
<svg version="1.1" id="Ebene_1" xmlns="http://www.w3.org/2000/svg" xmlns:xlink="http://www.w3.org/1999/xlink" x="0px" y="0px"
	 width="39.69px" height="39.69px" viewBox="0 0 39.69 39.69" enable-background="new 0 0 39.69 39.69" xml:space="preserve">
<g>
	<path fill="#4966A1" d="M32.976,32.977c-3.324,3.324-7.978,5.484-13.13,5.484s-9.807-1.994-13.131-5.484"/>
	<path fill="#4966A1" d="M38.96,19.845h0.664c0-10.97-8.809-19.779-19.779-19.779S0.066,8.875,0.066,19.845
		c0,10.971,8.809,19.78,19.779,19.78s19.779-8.809,19.779-19.78H38.96"/>
	<path fill="#FFFFFF" d="M25.33,15.025h-3.989v-2.161c0-1.164,0.166-1.662,1.662-1.662h2.161V6.88h-3.491
		c-4.155,0-5.65,2.161-5.65,5.651v2.493h-2.494v4.322h2.66v12.632h5.152V19.347h3.49L25.33,15.025z"/>
</g>
</svg>
