<?xml version="1.0" encoding="utf-8"?>
<!-- Generator: Adobe Illustrator 16.0.4, SVG Export Plug-In . SVG Version: 6.00 Build 0)  -->
<!DOCTYPE svg PUBLIC "-//W3C//DTD SVG 1.1//EN" "http://www.w3.org/Graphics/SVG/1.1/DTD/svg11.dtd">
<svg version="1.1" id="Ebene_1" xmlns="http://www.w3.org/2000/svg" xmlns:xlink="http://www.w3.org/1999/xlink" x="0px" y="0px"
	 width="39.69px" height="39.69px" viewBox="0 0 39.69 39.69" enable-background="new 0 0 39.69 39.69" xml:space="preserve">
<g>
	<path fill="#6CACDC" d="M38.295,19.845h0.665h0.665c0-10.97-8.81-19.779-19.78-19.779c-10.97,0-19.779,8.809-19.779,19.779
		c0,10.971,8.81,19.78,19.779,19.78c10.971,0,19.78-8.809,19.78-19.78H38.96"/>
	<path fill="#FFFFFF" d="M31.48,13.197c-0.831,0.333-1.662,0.665-2.659,0.665c0.997-0.499,1.662-1.496,1.994-2.493
		c-0.831,0.499-1.828,0.831-2.992,1.164c-0.83-0.831-1.994-1.496-3.324-1.496c-2.492,0-4.654,1.995-4.654,4.654
		c0,0.333,0,0.665,0.167,0.997c-3.823-0.166-7.313-1.995-9.475-4.82c-0.332,0.665-0.665,1.496-0.665,2.327
		c0,1.662,0.831,2.992,1.995,3.823c-0.831,0-1.496-0.167-2.161-0.499l0,0c0,2.161,1.662,4.156,3.657,4.488
		c-0.333,0.166-0.832,0.166-1.164,0.166s-0.665,0-0.831,0c0.665,1.828,2.327,3.158,4.321,3.158c-1.662,1.164-3.49,1.994-5.651,1.994
		c-0.332,0-0.664,0-1.163,0c1.994,1.33,4.488,1.996,7.147,1.996c8.477,0,13.131-6.982,13.131-13.132c0-0.166,0-0.333,0-0.665
		C30.151,14.859,30.981,14.028,31.48,13.197"/>
</g>
</svg>
