<?xml version="1.0" encoding="utf-8"?>
<!-- Generator: Adobe Illustrator 16.0.4, SVG Export Plug-In . SVG Version: 6.00 Build 0)  -->
<!DOCTYPE svg PUBLIC "-//W3C//DTD SVG 1.1//EN" "http://www.w3.org/Graphics/SVG/1.1/DTD/svg11.dtd">
<svg version="1.1" id="Ebene_1" xmlns="http://www.w3.org/2000/svg" xmlns:xlink="http://www.w3.org/1999/xlink" x="0px" y="0px"
	 width="39.69px" height="39.69px" viewBox="0 0 39.69 39.69" enable-background="new 0 0 39.69 39.69" xml:space="preserve">
<g>
	<path fill="#D54331" d="M38.959,19.845h0.666c0-10.97-8.811-19.779-19.78-19.779c-10.97,0-19.779,8.809-19.779,19.779
		c0,10.971,8.809,19.78,19.779,19.78c10.969,0,19.78-8.809,19.78-19.78H38.959h-0.664"/>
	<path fill="#FFFFFF" d="M18.183,17.685c0.665-0.665,0.665-1.496,0.665-1.995c0-1.995-1.163-4.986-3.324-4.986
		c-0.665,0-1.496,0.332-1.828,0.831c-0.499,0.499-0.665,1.33-0.665,1.995c0,1.828,0.998,4.82,3.324,4.82
		C17.02,18.516,17.685,18.183,18.183,17.685 M17.352,22.838c-0.167,0-0.333,0-0.665,0c-0.166,0-1.662,0-2.826,0.498
		c-0.665,0.166-2.327,0.832-2.327,2.826c0,1.828,1.828,3.324,4.654,3.324c2.66,0,3.989-1.164,3.989-2.826
		C20.344,24.998,19.513,24.334,17.352,22.838 M19.347,10.87c0.665,0.499,1.827,1.662,1.827,3.657s-1.163,2.992-2.326,3.823
		c-0.333,0.333-0.832,0.665-0.832,1.33c0,0.664,0.333,0.997,0.665,1.163l0.998,0.832c1.163,0.998,2.327,1.828,2.327,3.822
		c0,2.494-2.493,5.152-7.147,5.152c-3.823,0-5.817-1.828-5.817-3.822c0-0.996,0.499-2.326,1.994-3.324
		c1.662-0.998,3.989-1.164,5.153-1.164c-0.333-0.498-0.831-0.996-0.831-1.828c0-0.499,0.166-0.665,0.333-0.998
		c-0.333,0-0.665,0-0.831,0c-2.826,0-4.488-2.161-4.488-4.155c0-1.164,0.499-2.66,1.662-3.657c1.496-1.33,3.324-1.496,4.82-1.496
		h5.484l-1.662,0.998h-1.33V10.87z"/>
	<polygon fill="#FFFFFF" points="32.977,13.861 28.82,13.861 28.82,9.873 27.822,9.873 27.822,13.861 23.834,13.861 23.834,14.859 
		27.822,14.859 27.822,19.014 28.82,19.014 28.82,14.859 32.977,14.859 	"/>
</g>
</svg>
